# xmcd
#
# Track frame offsets: 
#        183
#        9970
#        24055
#        27208
#        44760
#        47110
#        74438
#        79168
#        97100
#        117390
#        120338
#        143290
#        147058
#        161990
#        185848
#        189635
#        208320
#        214740
#        239323
#        244840
#        268305
#        273660
#        294308
#        296125
#        315618
#        317583
#
# Disc length: 4610 seconds
#
# Revision: 4
# Processed by: cddbd v1.5.1PL0 Copyright (c) Steve Scherf et al.
# Submitted via: ExactAudioCopy v0.95a5
#
DISCID=8f12001a
DTITLE=Luke - In The Nude
DYEAR=1993
DGENRE=Miami Bass
TTITLE0=Do You Hear The Lambs Calling
TTITLE1=Work It Out
TTITLE2=We're Fuckin'
TTITLE3=Bad Land Boogie
TTITLE4=I Got A Fuckin' Headache
TTITLE5=Tell Me What You Know
TTITLE6=Dre's Momma Needs A Haircut
TTITLE7=Cowards In Compton
TTITLE8=Head, Head, and More Head (Part 2)
TTITLE9=Weenie Roast
TTITLE10=Menege A Tois (Part 2)
TTITLE11=Pimple On My Dick
TTITLE12=The Hero
TTITLE13=Whatever
TTITLE14=Stop Looking At My Dick
TTITLE15=The Hop
TTITLE16=L.L.O.L.M.
TTITLE17=Freestyle Joint
TTITLE18=$100 Bet
TTITLE19=Bust A Nut
TTITLE20=Wear A Rubber
TTITLE21=Take It Off
TTITLE22=The Boy Got Some Dick
TTITLE23=Headbanger
TTITLE24=Good To The Last Drop
TTITLE25=Shout Outs
EXTD=YEAR: 1993 ID3G: 15
EXTT0=
EXTT1=
EXTT2=
EXTT3=
EXTT4=
EXTT5=
EXTT6=
EXTT7=
EXTT8=
EXTT9=
EXTT10=
EXTT11=
EXTT12=
EXTT13=
EXTT14=
EXTT15=
EXTT16=
EXTT17=
EXTT18=
EXTT19=
EXTT20=
EXTT21=
EXTT22=
EXTT23=
EXTT24=
EXTT25=
PLAYORDER=
